<svg xmlns="http://www.w3.org/2000/svg" width="68" height="68" viewBox="0 0 68 68">
  <g id="Groupe_162" data-name="Groupe 162" transform="translate(-502 -238)">
    <rect id="Rectangle_55" data-name="Rectangle 55" width="43" height="63" rx="1" transform="translate(504.5 240.5)" fill="none" stroke="#f6830f" stroke-linecap="round" stroke-linejoin="round" stroke-width="5"/>
    <rect id="Rectangle_56" data-name="Rectangle 56" width="27" height="20" transform="translate(512.5 245.5)" fill="none" stroke="#f6830f" stroke-linecap="round" stroke-linejoin="round" stroke-width="5"/>
    <path id="Rectangle_57" data-name="Rectangle 57" d="M0,0H19a1,1,0,0,1,1,1V44a1,1,0,0,1-1,1H0a0,0,0,0,1,0,0V0A0,0,0,0,1,0,0Z" transform="translate(547.5 245.5)" fill="none" stroke="#f6830f" stroke-linecap="round" stroke-linejoin="round" stroke-width="5"/>
    <line id="Ligne_9" data-name="Ligne 9" y2="45" transform="translate(559.5 245.5)" fill="none" stroke="#f6830f" stroke-linecap="round" stroke-linejoin="round" stroke-width="5"/>
    <path id="Tracé_2281" data-name="Tracé 2281" d="M506.5,252.5h5.478v5.478" transform="translate(3.478 20.87)" fill="none" stroke="#f6830f" stroke-linecap="round" stroke-linejoin="round" stroke-width="5"/>
    <path id="Tracé_2282" data-name="Tracé 2282" d="M511.5,252.5h5.478v5.478" transform="translate(12.174 20.87)" fill="none" stroke="#f6830f" stroke-linecap="round" stroke-linejoin="round" stroke-width="5"/>
    <path id="Tracé_2283" data-name="Tracé 2283" d="M516.5,252.5h5.478v5.478" transform="translate(20.87 20.87)" fill="none" stroke="#f6830f" stroke-linecap="round" stroke-linejoin="round" stroke-width="5"/>
    <path id="Tracé_2284" data-name="Tracé 2284" d="M506.5,258.5h5.478v5.478" transform="translate(3.478 31.304)" fill="none" stroke="#f6830f" stroke-linecap="round" stroke-linejoin="round" stroke-width="5"/>
    <path id="Tracé_2285" data-name="Tracé 2285" d="M511.5,258.5h5.478v5.478" transform="translate(12.174 31.304)" fill="none" stroke="#f6830f" stroke-linecap="round" stroke-linejoin="round" stroke-width="5"/>
    <path id="Tracé_2286" data-name="Tracé 2286" d="M516.5,258.5h5.478v5.478" transform="translate(20.87 31.304)" fill="none" stroke="#f6830f" stroke-linecap="round" stroke-linejoin="round" stroke-width="5"/>
  </g>
</svg>
