<svg xmlns="http://www.w3.org/2000/svg" width="68" height="68" viewBox="0 0 68 68">
  <g id="Groupe_158" data-name="Groupe 158" transform="translate(-1534 -286)">
    <path id="Tracé_2271" data-name="Tracé 2271" d="M1559.387,301.69l12.792,12.792a5.489,5.489,0,0,1,0,7.752l-1.945,1.945a5.489,5.489,0,0,1-7.752,0l-12.792-12.792" transform="translate(22.939 22.939)" fill="none" stroke="#f6830f" stroke-linecap="round" stroke-linejoin="round" stroke-width="5"/>
    <path id="Tracé_2272" data-name="Tracé 2272" d="M1551.91,313.606l-12.792-12.792a5.489,5.489,0,0,1,0-7.752l1.945-1.945a5.488,5.488,0,0,1,7.751,0l12.792,12.792" transform="translate(1.765 1.765)" fill="none" stroke="#f6830f" stroke-linecap="round" stroke-linejoin="round" stroke-width="5"/>
    <path id="Tracé_2273" data-name="Tracé 2273" d="M1549.69,303.909l12.792-12.792a5.488,5.488,0,0,1,7.752,0l1.945,1.945a5.489,5.489,0,0,1,0,7.752l-12.792,12.792" transform="translate(22.939 1.765)" fill="none" stroke="#f6830f" stroke-linecap="round" stroke-linejoin="round" stroke-width="5"/>
    <path id="Tracé_2274" data-name="Tracé 2274" d="M1551.91,301.69l-12.792,12.792a5.489,5.489,0,0,0,0,7.752l1.945,1.945a5.488,5.488,0,0,0,7.751,0l12.792-12.792" transform="translate(1.765 22.939)" fill="none" stroke="#f6830f" stroke-linecap="round" stroke-linejoin="round" stroke-width="5"/>
    <path id="Tracé_2275" data-name="Tracé 2275" d="M1541.84,293.43a31.338,31.338,0,0,1,33.746,0" transform="translate(9.287)" fill="none" stroke="#f6830f" stroke-linecap="round" stroke-linejoin="round" stroke-width="5"/>
    <path id="Tracé_2276" data-name="Tracé 2276" d="M1541.84,309.7a31.338,31.338,0,0,0,33.746,0" transform="translate(9.287 36.87)" fill="none" stroke="#f6830f" stroke-linecap="round" stroke-linejoin="round" stroke-width="5"/>
    <path id="Tracé_2277" data-name="Tracé 2277" d="M1541.43,327.586a31.337,31.337,0,0,1,0-33.746" transform="translate(0 9.287)" fill="none" stroke="#f6830f" stroke-linecap="round" stroke-linejoin="round" stroke-width="5"/>
    <path id="Tracé_2278" data-name="Tracé 2278" d="M1557.7,293.84a31.334,31.334,0,0,1,0,33.746" transform="translate(36.87 9.287)" fill="none" stroke="#f6830f" stroke-linecap="round" stroke-linejoin="round" stroke-width="5"/>
    <circle id="Ellipse_33" data-name="Ellipse 33" cx="14.5" cy="14.5" r="14.5" transform="translate(1553.5 305.5)" fill="none" stroke="#f6830f" stroke-linecap="round" stroke-linejoin="round" stroke-width="5"/>
  </g>
</svg>
