<svg id="Calque_1" data-name="Calque 1" xmlns="http://www.w3.org/2000/svg" viewBox="0 0 79.32 87.07"><defs><style>.cls-1{fill:#fff;}</style></defs><path class="cls-1" d="M79,38.89C76.35,19.41,64.31,14.62,54.64,14A15.38,15.38,0,0,0,44.31,17a26.48,26.48,0,0,0-1.43-5.72C39.47,2.37,30.06,0,25.05,0a5,5,0,0,0,0,10c.07,0,6.73.15,8.52,4.83A15.32,15.32,0,0,1,34,16.42,15.29,15.29,0,0,0,24.68,14C15,14.78,2.93,19.7.33,38.89S10.81,81.35,23,86.11c4.38,1.72,8.23.66,11.32-.19A17.48,17.48,0,0,1,39.5,85a21.82,21.82,0,0,1,4.71.9,27.08,27.08,0,0,0,7,1.15,14,14,0,0,0,5.19-1C68.51,81.35,81.59,58.16,79,38.89ZM52.72,76.8c-1.48.58-3.15.19-6-.55A30.75,30.75,0,0,0,39.82,75h-.61a27.69,27.69,0,0,0-7.6,1.27c-2.44.68-3.78,1-5,.52C19,73.82,8.25,55,10.25,40.23c1.44-10.66,6-15.51,15.19-16.22,2.06-.16,3.65,1,6,2.89,2.13,1.7,4.74,3.8,8.19,3.67,3.43.13,6.06-2,8.18-3.7C50.19,25,51.74,23.8,53.77,24l.2,0c6.06.34,13.25,2.5,15.1,16.21h0C71.07,55,60.33,73.82,52.72,76.8Z"/></svg>