<svg id="Calque_1" data-name="Calque 1" xmlns="http://www.w3.org/2000/svg" viewBox="0 0 79.32 87.07"><defs><style>.cls-1{fill:#fff;}</style></defs><path class="cls-1" d="M75.81,59,35,18.22c-.12-4.35-.83-8.71-4.3-9.94a5.49,5.49,0,0,0-5.88,1.83L10.39,24.53A5.46,5.46,0,0,0,8.55,30.4c1.23,3.47,5.59,4.19,9.94,4.3l40.9,40.9a12.15,12.15,0,0,0,8,3.25h0a11.36,11.36,0,0,0,8.09-3.6C81.42,69.37,79,62.36,75.81,59ZM64.48,70.37,36.22,42.1H48.54l22,22c.84.9,2.5,3.28-.19,6S65.31,71.13,64.48,70.37Zm-35.71-48L41.24,34.8H28.92l-6.31-6.31A3.63,3.63,0,0,0,20,27.42c-.84,0-1.55,0-2.16-.05l9.78-9.79c0,.61.05,1.33.05,2.17A3.63,3.63,0,0,0,28.77,22.33Z"/><path class="cls-1" d="M11.93,39.78a3.63,3.63,0,0,0-3,1.64C6.84,44.51.18,55,.18,60.18a11.76,11.76,0,1,0,23.51,0C23.69,55,17,44.51,15,41.41A3.66,3.66,0,0,0,11.93,39.78Zm0,24.86a4.46,4.46,0,0,1-4.45-4.46c0-1.16,1.52-4.76,4.45-9.8,2.93,5,4.46,8.64,4.46,9.8A4.46,4.46,0,0,1,11.93,64.64Z"/></svg>