<svg xmlns="http://www.w3.org/2000/svg" width="46.987" height="46.987" viewBox="0 0 46.987 46.987">
  <path id="Tracé_2166" data-name="Tracé 2166" d="M59.129-153.277A23.406,23.406,0,0,1,75.742-146.4a23.407,23.407,0,0,1,6.881,16.612,23.406,23.406,0,0,1-6.881,16.612,23.408,23.408,0,0,1-16.612,6.881,23.407,23.407,0,0,1-16.612-6.881,23.406,23.406,0,0,1-6.881-16.612A23.406,23.406,0,0,1,42.517-146.4a23.406,23.406,0,0,1,16.612-6.882Zm15.325,8.182a21.644,21.644,0,0,0-15.325-6.348,21.59,21.59,0,0,0-15.311,6.348,21.588,21.588,0,0,0-6.348,15.311,21.641,21.641,0,0,0,6.348,15.324,21.579,21.579,0,0,0,15.311,6.335,21.633,21.633,0,0,0,15.325-6.335,21.632,21.632,0,0,0,6.335-15.324,21.579,21.579,0,0,0-6.335-15.311Z" transform="translate(-35.636 153.277)" fill="#434343"/>
</svg>
