<svg xmlns="http://www.w3.org/2000/svg" width="23.559" height="23.558" viewBox="0 0 23.559 23.558">
  <path id="Tracé_2169" data-name="Tracé 2169" d="M192.036-116.813a6.024,6.024,0,0,1,6.01-6.023,6.027,6.027,0,0,1,6.023,6.023,6.018,6.018,0,0,1-6.023,6.023,6.016,6.016,0,0,1-6.01-6.023Zm12.228-11.773H191.841a5.582,5.582,0,0,0-5.568,5.568v12.423a5.591,5.591,0,0,0,5.568,5.567h12.423a5.582,5.582,0,0,0,5.568-5.567v-12.423a5.573,5.573,0,0,0-5.568-5.568Zm-12.423,1.392h12.423a4.18,4.18,0,0,1,4.176,4.176v12.423a4.18,4.18,0,0,1-4.176,4.175H191.841a4.18,4.18,0,0,1-4.176-4.175v-12.423a4.18,4.18,0,0,1,4.176-4.176Zm13.659,1.756a1.221,1.221,0,0,0-1.223,1.223,1.221,1.221,0,0,0,1.223,1.223,1.221,1.221,0,0,0,1.223-1.223,1.221,1.221,0,0,0-1.223-1.223Zm.143,8.625a7.6,7.6,0,0,0-7.6-7.6,7.606,7.606,0,0,0-7.6,7.6,7.6,7.6,0,0,0,7.6,7.6,7.589,7.589,0,0,0,7.6-7.6Z" transform="translate(-186.273 128.586)" fill="#434343" fill-rule="evenodd"/>
</svg>
