<svg xmlns="http://www.w3.org/2000/svg" width="24.001" height="17.601" viewBox="0 0 24.001 17.601">
  <path id="Tracé_2161" data-name="Tracé 2161" d="M336.372-118.51a5.63,5.63,0,0,0-.963-2.484,3.434,3.434,0,0,0-2.393-1.067c-3.356-.247-8.391-.247-8.391-.247H324.6s-5.021,0-8.378.247a3.418,3.418,0,0,0-2.406,1.067,5.633,5.633,0,0,0-.962,2.484,38.173,38.173,0,0,0-.248,4.033v1.912a37.54,37.54,0,0,0,.248,4.033,5.721,5.721,0,0,0,.962,2.5,3.93,3.93,0,0,0,2.654,1.067c1.912.195,8.156.26,8.156.26s5.034-.026,8.391-.26a3.375,3.375,0,0,0,2.393-1.067,5.718,5.718,0,0,0,.963-2.5,39.788,39.788,0,0,0,.234-4.033v-1.912c0-2-.234-4.033-.234-4.033Zm-7.753,4.735-6.491,3.5V-117.3l2.94,1.6Z" transform="translate(-312.605 122.308)" fill="#434343" fill-rule="evenodd"/>
</svg>
