<svg xmlns="http://www.w3.org/2000/svg" width="21.204" height="21.204" viewBox="0 0 21.204 21.204">
  <path id="Tracé_2163" data-name="Tracé 2163" d="M566.5-115.282V-104.9h4.943v-14.141H566.5Zm21.087.585c-.325-2.68-1.548-4.345-5.165-4.345-2.12,0-3.551.781-4.149,1.913h-.065v-1.913h-3.942V-104.9h4.124v-7.011c0-1.848.364-3.63,2.629-3.63s2.444,2.108,2.444,3.76v6.881H587.7v-7.766a16.551,16.551,0,0,0-.117-2.029Zm-18.615-11.409a2.471,2.471,0,0,0-2.472,2.472,2.471,2.471,0,0,0,2.472,2.471,2.47,2.47,0,0,0,2.471-2.471,2.47,2.47,0,0,0-2.471-2.472Z" transform="translate(-566.5 126.105)" fill="#434343" fill-rule="evenodd"/>
</svg>
