<svg xmlns="http://www.w3.org/2000/svg" width="151" height="151" viewBox="0 0 151 151">
  <g id="picto-suivi-jaune" transform="translate(-1373 -1257)">
    <circle id="Ellipse_16" data-name="Ellipse 16" cx="75.5" cy="75.5" r="75.5" transform="translate(1373 1257)" fill="#f9d56e"/>
    <g id="Groupe_35" data-name="Groupe 35" transform="translate(643.5 1055.768)">
      <rect id="Rectangle_10" data-name="Rectangle 10" width="74" height="55" rx="2" transform="translate(768.5 255.232)" fill="none" stroke="#fff" stroke-linecap="round" stroke-linejoin="round" stroke-width="6"/>
      <path id="Tracé_79" data-name="Tracé 79" d="M842.5,249.5l-5.276,5.428a25.751,25.751,0,0,1-10.775,6.625l-12.905,4.035V262.37a3.219,3.219,0,0,0-3.217-3.217h-9.652a3.219,3.219,0,0,0-3.217,3.217v3.217l-12.969-4.067a25.734,25.734,0,0,1-10.785-6.65l-5.2-5.37" transform="translate(0 15.689)" fill="none" stroke="#fff" stroke-linecap="round" stroke-linejoin="round" stroke-width="6"/>
      <path id="Rectangle_11" data-name="Rectangle 11" d="M1,0H29a1,1,0,0,1,1,1V13a0,0,0,0,1,0,0H0a0,0,0,0,1,0,0V1A1,1,0,0,1,1,0Z" transform="translate(790.5 242.232)" fill="none" stroke="#fff" stroke-linecap="round" stroke-linejoin="round" stroke-width="6"/>
      <rect id="Rectangle_12" data-name="Rectangle 12" width="14" height="14" rx="1" transform="translate(798.5 274.232)" fill="none" stroke="#fff" stroke-linecap="round" stroke-linejoin="round" stroke-width="6"/>
    </g>
  </g>
</svg>
