<svg id="Calque_1" data-name="Calque 1" xmlns="http://www.w3.org/2000/svg" viewBox="0 0 79.32 87.07"><defs><style>.cls-1{fill:#fff;}</style></defs><path class="cls-1" d="M76.1,57.83V34.06a5.27,5.27,0,0,0-.09-.89,2,2,0,0,0-.06-.26,4.19,4.19,0,0,0-.19-.63,1.45,1.45,0,0,0-.09-.22,4.51,4.51,0,0,0-.4-.75l-.11-.15a5.62,5.62,0,0,0-.44-.53l-.18-.18A5.62,5.62,0,0,0,74,30l-.15-.11a4.7,4.7,0,0,0-.69-.39l-33-15a5.06,5.06,0,0,0-4.14,0l-33,15a5,5,0,0,0,0,9.11l9.07,4.12v19a5,5,0,0,0,2.67,4.42,48.61,48.61,0,0,0,22.92,5.9,53.5,53.5,0,0,0,23.6-5.83,4.9,4.9,0,0,0,1.84-1.56,8,8,0,1,0,13-6.85Zm-38-33.27L59,34.06,38.1,43.57,17.18,34.06Zm-16,34.07V47.28L36,53.62a5.09,5.09,0,0,0,4.14,0L54.1,47.28V58.53C43,63.23,32.45,63.26,22.1,58.63Zm42,1.57V42.74l2-.91v16A8,8,0,0,0,64.1,60.2Z"/></svg>