<svg id="Groupe_344" data-name="Groupe 344" xmlns="http://www.w3.org/2000/svg" width="49.277" height="48.933" viewBox="0 0 49.277 48.933">
  <rect id="Rectangle_61" data-name="Rectangle 61" width="49.277" height="48.933" rx="24.466" transform="translate(0 0)" fill="#fff"/>
  <g id="Groupe_165" data-name="Groupe 165" transform="translate(6.214 11.153)">
    <g id="Groupe_164" data-name="Groupe 164">
      <path id="Tracé_2290" data-name="Tracé 2290" d="M187.543-799.347a43.771,43.771,0,0,0,4.092-3.547c1.91-1.91,5.58-6.424,4.7-17.944-10.156-1.153-15.84,2.439-18.432,5.031a15.953,15.953,0,0,0-2.91,3.91s-2.728-.546-9,4.638l5.184,4.092-.819,3.274,4.911,4.911h3.819l3.547,4.365S187.27-795.255,187.543-799.347Zm-3.683-9.14a2.509,2.509,0,0,1,0-3.547,2.508,2.508,0,0,1,3.547,0,2.508,2.508,0,0,1,0,3.547A2.509,2.509,0,0,1,183.86-808.487Z" transform="translate(-165.99 821.06)" fill="#f6830f"/>
    </g>
  </g>
</svg>
