<svg xmlns="http://www.w3.org/2000/svg" width="23.988" height="19.188" viewBox="0 0 23.988 19.188">
  <path id="Tracé_2165" data-name="Tracé 2165" d="M461.555-121.7a10.479,10.479,0,0,1-2.823.768,4.854,4.854,0,0,0,2.173-2.693,10.022,10.022,0,0,1-3.135,1.184,4.905,4.905,0,0,0-3.6-1.535,4.89,4.89,0,0,0-4.918,4.839,5.054,5.054,0,0,0,.144,1.106,13.969,13.969,0,0,1-10.148-5.06,4.888,4.888,0,0,0-.676,2.433,4.841,4.841,0,0,0,2.185,4.033,4.767,4.767,0,0,1-2.224-.6v.065a4.582,4.582,0,0,0,.338,1.743,4.906,4.906,0,0,0,3.617,2.992,4.84,4.84,0,0,1-1.3.182,4.383,4.383,0,0,1-.924-.1,4.964,4.964,0,0,0,4.593,3.382,9.955,9.955,0,0,1-6.1,2.068c-.4,0-.78-.027-1.183-.065a14.207,14.207,0,0,0,7.545,2.173,13.691,13.691,0,0,0,13.671-10.85,13.3,13.3,0,0,0,.326-2.926v-.625a10.176,10.176,0,0,0,2.446-2.511Z" transform="translate(-437.567 123.98)" fill="#434343" fill-rule="evenodd"/>
</svg>
